<?xml version="1.0" encoding="UTF-8"?>
<svg version="1.1" xmlns="http://www.w3.org/2000/svg" width="256" height="256">
<path d="M0 0 C84.48 0 168.96 0 256 0 C256 84.48 256 168.96 256 256 C171.52 256 87.04 256 0 256 C0 171.52 0 87.04 0 0 Z " fill="#000000" transform="translate(0,0)"/>
<path d="M0 0 C0.6618332 -0.00382555 1.3236664 -0.00765109 2.00555515 -0.01159257 C4.23351948 -0.02194961 6.4612274 -0.01792542 8.68920898 -0.01396179 C10.28230021 -0.01830675 11.87538934 -0.02348917 13.46847534 -0.02944946 C17.80308713 -0.04287315 22.13761191 -0.04341447 26.47224045 -0.04088616 C30.08582675 -0.03981886 33.69939528 -0.04469355 37.31297779 -0.04949158 C45.83456049 -0.06059814 54.35609911 -0.06101754 62.87768555 -0.05497742 C71.68119081 -0.04893363 80.4845364 -0.06125625 89.28801441 -0.08254749 C96.83622924 -0.10013445 104.38439311 -0.10616951 111.93262768 -0.10290974 C116.44537379 -0.1010923 120.95800599 -0.10377887 125.47073364 -0.11762428 C129.71262051 -0.13015114 133.95425749 -0.12830771 138.19614029 -0.11521339 C139.75625821 -0.11283688 141.31639345 -0.11562047 142.87649155 -0.12383652 C144.99982422 -0.1342157 147.12230454 -0.12627613 149.24560547 -0.11352539 C150.43580795 -0.11369313 151.62601044 -0.11386087 152.85227966 -0.1140337 C154.22368858 0.07145771 154.22368858 0.07145771 155.62280273 0.26069641 C158.02080186 3.8576951 157.87201159 5.44462925 157.87004089 9.72018433 C157.87245531 10.3787884 157.87486972 11.03739247 157.8773573 11.71595424 C157.88300165 13.92701351 157.87432584 16.1377848 157.86572266 18.34883118 C157.86679535 19.93221617 157.86873384 21.51560078 157.87147522 23.09898376 C157.87632837 27.40256083 157.86866229 31.70603442 157.85852218 36.00959897 C157.8497504 40.50767989 157.85149894 45.00575749 157.85188293 49.50384521 C157.85094597 57.05717199 157.84225713 64.61045863 157.82861328 72.16377258 C157.81288174 80.90533062 157.80761536 89.6468447 157.80834883 98.38841587 C157.8089585 106.78776827 157.80385906 115.1871063 157.79555702 123.58645439 C157.79202013 127.1657669 157.7901932 130.74507433 157.78966331 134.3243885 C157.78866114 138.53585172 157.78257479 142.74727781 157.77249718 146.95872879 C157.76956852 148.50755651 157.76834754 150.0563885 157.76892471 151.60521889 C157.76941305 153.71291652 157.76378301 155.8205091 157.7565155 157.92819214 C157.75483966 159.10972146 157.75316381 160.29125078 157.75143719 161.50858402 C157.62280273 164.26069641 157.62280273 164.26069641 156.62280273 166.26069641 C102.50280273 166.26069641 48.38280273 166.26069641 -7.37719727 166.26069641 C-8.79365294 163.42778506 -8.50644781 161.05261987 -8.51091003 157.88349915 C-8.51317559 157.22166595 -8.51544115 156.55983274 -8.51777536 155.87794399 C-8.52412882 153.65004187 -8.52328514 151.42220037 -8.52246094 149.19429016 C-8.52545155 147.60120057 -8.52885385 146.00811171 -8.53263855 144.4150238 C-8.54149172 140.08043158 -8.54381719 135.74585909 -8.54445434 131.4112587 C-8.54540224 127.79767745 -8.54907907 124.18410083 -8.55262643 120.57052135 C-8.56077565 112.04894973 -8.5632102 103.52738867 -8.5625 95.0058136 C-8.56189876 86.20234508 -8.57245871 77.39893776 -8.58824366 68.59548473 C-8.60129782 61.04727736 -8.60668481 53.49909005 -8.60604459 45.95087147 C-8.60578902 41.43814762 -8.60867278 36.92547815 -8.61922264 32.4127655 C-8.62886822 28.17092892 -8.62900731 23.92919909 -8.62170601 19.68735886 C-8.62065581 18.12724019 -8.62304868 16.56711501 -8.62906647 15.0070076 C-8.63672815 12.88384203 -8.63218086 10.76105058 -8.62443542 8.63789368 C-8.62498019 7.44769119 -8.62552496 6.25748871 -8.62608624 5.03121948 C-8.1214642 -0.58601216 -4.80093189 0.00828068 0 0 Z " fill="#000000" transform="translate(53.377197265625,43.73930358886719)"/>
<path d="M0 0 C1.03456728 -0.00657338 1.03456728 -0.00657338 2.0900349 -0.01327956 C4.40670064 -0.02665938 6.72332833 -0.03284465 9.0400238 -0.03897095 C10.69909842 -0.04687276 12.35817133 -0.05514176 14.01724243 -0.06375122 C19.47200378 -0.08996906 24.92677278 -0.10528174 30.38157654 -0.11953735 C32.26067039 -0.12489772 34.1397642 -0.13027523 36.01885796 -0.13566971 C43.83812705 -0.15730086 51.65739408 -0.17603566 59.47668552 -0.1872921 C70.67367194 -0.20351778 81.87031059 -0.23665929 93.06716591 -0.29369295 C100.94417526 -0.33244392 108.82109182 -0.35193107 116.69819397 -0.35721266 C121.40020698 -0.36085995 126.10184905 -0.37281424 130.80375862 -0.4053154 C135.23208604 -0.43548577 139.65981984 -0.4416761 144.08822823 -0.42993164 C145.70789813 -0.42971163 147.32759629 -0.43795619 148.94717026 -0.45558548 C159.57814692 -0.56494497 167.57952111 0.48931083 176.06517029 7.46640015 C181.85070113 14.57433803 184.36781038 19.76440543 184.39984131 28.99024963 C184.403518 29.67743759 184.40719468 30.36462555 184.41098279 31.07263738 C184.4219935 33.3747163 184.42585902 35.67675004 184.42967224 37.97885132 C184.43593889 39.62984357 184.44258587 41.28083442 184.44958496 42.93182373 C184.47060462 48.3534955 184.48098571 53.77516749 184.49095154 59.1968689 C184.49499994 61.06515327 184.49911689 62.9334375 184.50330162 64.80172157 C184.52234906 73.58016506 184.53658077 82.35860017 184.54491359 91.13706034 C184.5546833 101.26138967 184.58099774 111.3855002 184.62141448 121.50975245 C184.65160134 129.3409087 184.66638492 137.17200232 184.6696946 145.00321561 C184.67204223 149.67773578 184.68096529 154.3520221 184.70615578 159.02647972 C184.7294864 163.42685372 184.73364976 167.8268407 184.72339439 172.22726059 C184.72290013 173.8376666 184.72918828 175.44809198 184.74295044 177.05843925 C184.83913473 188.98553923 183.46310393 197.4919105 175.18626404 206.42733765 C169.11215889 211.85108406 162.47185738 213.27479835 154.5302124 213.29434204 C153.51780645 213.29879872 153.51780645 213.29879872 152.48494786 213.30334544 C150.22432256 213.31201388 147.96375034 213.31353913 145.70310974 213.31503296 C144.08167407 213.31966252 142.46023948 213.32468736 140.83880615 213.33007812 C136.43362094 213.34319248 132.02845097 213.34964542 127.62324929 213.35408878 C124.86929574 213.35702159 122.11534634 213.36112683 119.36139488 213.36559296 C110.739926 213.37926649 102.11846661 213.38893337 93.49698764 213.39279485 C83.55437873 213.3972728 73.61190749 213.41480908 63.66934043 213.44379544 C55.97830943 213.46543697 48.28731708 213.47550048 40.59625596 213.47683597 C36.00561776 213.47788239 31.415109 213.48375539 26.82450294 213.50165558 C22.50296856 213.51817862 18.1816603 213.5202713 13.86010551 213.51151657 C12.27873248 213.51074841 10.69734708 213.51505967 9.11600494 213.52497482 C-2.83662017 213.59549053 -11.77334666 212.88572618 -20.79811096 204.34921265 C-25.98158937 198.51130711 -27.86779035 192.13554849 -27.89450073 184.4445343 C-27.89817742 183.75890634 -27.90185411 183.07327837 -27.90564221 182.3668738 C-27.91667573 180.06402282 -27.92052237 177.76121696 -27.92433167 175.45834351 C-27.93059674 173.80912126 -27.93724358 172.15990043 -27.94424438 170.51068115 C-27.9652879 165.08837874 -27.97564934 159.66607604 -27.98561096 154.2437439 C-27.98965888 152.37579394 -27.99377581 150.50784414 -27.99796104 148.63989449 C-28.017016 139.86091157 -28.0312445 131.08193707 -28.03957301 122.30293745 C-28.04933683 112.17860797 -28.07563271 102.05449763 -28.11607391 91.93024534 C-28.14627501 84.09994288 -28.16104581 76.26970307 -28.16435403 68.43934351 C-28.16670062 63.76533542 -28.17560961 59.09156135 -28.2008152 54.41761589 C-28.22416987 50.01561057 -28.22829958 45.61399209 -28.21805382 41.21194077 C-28.21756008 39.60195564 -28.22383235 37.99195101 -28.23760986 36.38202477 C-28.3197604 26.20786175 -27.35565783 18.26030158 -22.12232971 9.40390015 C-15.68103246 3.30161854 -8.82190477 0.03971153 0 0 Z M-4.74732971 25.15390015 C-5.05021502 28.05951137 -5.05021502 28.05951137 -4.99456787 31.53109741 C-4.99698229 32.19293061 -4.9993967 32.85476381 -5.00188428 33.53665257 C-5.00754092 35.76463615 -4.99884356 37.99233549 -4.99024963 40.2203064 C-4.99132203 41.81339598 -4.99326008 43.40648517 -4.9960022 44.99957275 C-5.00086046 49.33419943 -4.99318266 53.66872358 -4.98304915 58.00333786 C-4.97428443 62.53212117 -4.97602579 67.06090111 -4.97640991 71.58969116 C-4.97547254 79.19607261 -4.96677879 86.80241424 -4.95314026 94.40878296 C-4.93741397 103.21223612 -4.93214212 112.01564563 -4.93287581 120.81911182 C-4.9334855 129.27559326 -4.9283855 137.73206044 -4.920084 146.1885376 C-4.91654671 149.79296988 -4.91472011 153.39739712 -4.91419029 157.00183105 C-4.91318808 161.24364961 -4.90710141 165.4854313 -4.89702415 169.7272377 C-4.89409544 171.28735249 -4.89287453 172.84747153 -4.89345169 174.40758896 C-4.89394002 176.53066652 -4.88831005 178.6536398 -4.88104248 180.77670288 C-4.87936664 181.96690536 -4.87769079 183.15710785 -4.87596416 184.38337708 C-4.93677008 187.11272698 -4.93677008 187.11272698 -3.74732971 189.15390015 C50.37267029 189.15390015 104.49267029 189.15390015 160.25267029 189.15390015 C161.66381228 186.33161616 161.38190432 183.97906236 161.38638306 180.82139587 C161.38978139 179.83582975 161.38978139 179.83582975 161.39324838 178.8303532 C161.39960172 176.61860446 161.39875817 174.40691679 161.39793396 172.19515991 C161.40092461 170.61354492 161.40432692 169.03193067 161.40811157 167.45031738 C161.41696508 163.14664874 161.41929024 158.84299996 161.41992736 154.53932309 C161.42087537 150.95068937 161.4245524 147.36206031 161.42809945 143.77342838 C161.43624905 135.30934822 161.43868322 126.8452787 161.43797302 118.38119507 C161.437372 109.64023035 161.44792757 100.89932729 161.46371669 92.15837818 C161.47677691 84.6619594 161.48215756 77.16556082 161.48151761 69.66913074 C161.48126219 65.18823293 161.48413774 60.70738989 161.49469566 56.22650337 C161.50435123 52.01339061 161.50447339 47.8003853 161.49717903 43.58726883 C161.49613003 42.0388581 161.49851466 40.49044076 161.50453949 38.9420414 C161.51221811 36.83236249 161.50764241 34.72305847 161.49990845 32.61338806 C161.50045321 31.43148171 161.50099798 30.24957537 161.50155926 29.03185368 C161.46795479 25.95579957 161.46795479 25.95579957 159.25267029 23.15390015 C156.35241738 22.69853391 156.35241738 22.69853391 152.87547302 22.77967834 C152.21363982 22.77570394 151.55180662 22.77172953 150.86991787 22.76763469 C148.6418178 22.75797411 146.41434677 22.76985179 144.18626404 22.78158569 C142.59317283 22.77915896 141.00008314 22.77544078 139.40699768 22.77052307 C135.07232847 22.76109422 130.73788426 22.77055613 126.40323257 22.7838552 C121.87444766 22.79514551 117.34567421 22.79106407 112.81687927 22.78910828 C105.2104778 22.78822453 97.60416531 22.79932246 89.99778748 22.81771851 C81.19430781 22.83888737 72.39095857 22.84239649 63.58745861 22.83615655 C55.13096577 22.83046864 46.67451903 22.83610177 38.21803284 22.84733009 C34.61359305 22.8519837 31.00918137 22.85284665 27.40473938 22.85074425 C23.16288257 22.84886534 18.92115913 22.85693447 14.67933273 22.87280464 C13.11922126 22.87705965 11.55909628 22.87788992 9.99898148 22.87511444 C7.87579543 22.87190938 5.75301216 22.88093147 3.62986755 22.89320374 C2.43966507 22.89525661 1.24946259 22.89730947 0.02319336 22.89942455 C-2.8888745 22.86913397 -2.8888745 22.86913397 -4.74732971 25.15390015 Z " fill="#AAEC05" transform="translate(49.74732971191406,20.846099853515625)"/>
</svg>
